<mxfile host="app.diagrams.net" modified="2020-11-30T11:05:25.540Z" agent="5.0 (X11; Linux x86_64) AppleWebKit/537.36 (KHTML, like Gecko) Chrome/87.0.4280.66 Safari/537.36" etag="eFdHNHEAaPSPdRN-OkPD" version="13.10.4" type="github">
  <diagram id="lau3yiIXBi-KjJQag710" name="Page-1">
    <mxGraphModel dx="2840" dy="1129" grid="1" gridSize="10" guides="1" tooltips="1" connect="1" arrows="1" fold="1" page="1" pageScale="1" pageWidth="850" pageHeight="1100" math="0" shadow="0">
      <root>
        <mxCell id="0" />
        <mxCell id="1" parent="0" />
        <mxCell id="Lcr_79089u36eCl_vuPX-49" value="" style="rounded=1;whiteSpace=wrap;html=1;" vertex="1" parent="1">
          <mxGeometry x="210" y="530" width="140" height="150" as="geometry" />
        </mxCell>
        <mxCell id="Lcr_79089u36eCl_vuPX-1" value="" style="rounded=1;whiteSpace=wrap;html=1;" vertex="1" parent="1">
          <mxGeometry x="80" y="890" width="660" height="120" as="geometry" />
        </mxCell>
        <mxCell id="Lcr_79089u36eCl_vuPX-2" value="Node 1" style="rounded=0;whiteSpace=wrap;html=1;" vertex="1" parent="1">
          <mxGeometry x="110" y="910" width="120" height="60" as="geometry" />
        </mxCell>
        <mxCell id="Lcr_79089u36eCl_vuPX-3" value="Node 2" style="rounded=0;whiteSpace=wrap;html=1;" vertex="1" parent="1">
          <mxGeometry x="260" y="910" width="120" height="60" as="geometry" />
        </mxCell>
        <mxCell id="Lcr_79089u36eCl_vuPX-5" value="" style="endArrow=none;dashed=1;html=1;dashPattern=1 3;strokeWidth=2;" edge="1" parent="1">
          <mxGeometry width="50" height="50" relative="1" as="geometry">
            <mxPoint x="410" y="969" as="sourcePoint" />
            <mxPoint x="570" y="969" as="targetPoint" />
          </mxGeometry>
        </mxCell>
        <mxCell id="Lcr_79089u36eCl_vuPX-7" value="Node (n)" style="rounded=0;whiteSpace=wrap;html=1;" vertex="1" parent="1">
          <mxGeometry x="590" y="910" width="120" height="60" as="geometry" />
        </mxCell>
        <mxCell id="Lcr_79089u36eCl_vuPX-8" value="PROXMOX Cluster" style="text;html=1;strokeColor=none;fillColor=none;align=center;verticalAlign=middle;whiteSpace=wrap;rounded=0;" vertex="1" parent="1">
          <mxGeometry x="350" y="980" width="120" height="20" as="geometry" />
        </mxCell>
        <mxCell id="Lcr_79089u36eCl_vuPX-10" value="VM 1" style="rounded=0;whiteSpace=wrap;html=1;" vertex="1" parent="1">
          <mxGeometry x="-70" y="750" width="120" height="60" as="geometry" />
        </mxCell>
        <mxCell id="Lcr_79089u36eCl_vuPX-11" value="VM 2" style="rounded=0;whiteSpace=wrap;html=1;" vertex="1" parent="1">
          <mxGeometry x="60" y="750" width="120" height="60" as="geometry" />
        </mxCell>
        <mxCell id="Lcr_79089u36eCl_vuPX-12" value="VM (n)" style="rounded=0;whiteSpace=wrap;html=1;" vertex="1" parent="1">
          <mxGeometry x="250" y="750" width="120" height="60" as="geometry" />
        </mxCell>
        <mxCell id="Lcr_79089u36eCl_vuPX-13" value="" style="endArrow=none;dashed=1;html=1;dashPattern=1 3;strokeWidth=2;" edge="1" parent="1">
          <mxGeometry width="50" height="50" relative="1" as="geometry">
            <mxPoint x="190" y="809" as="sourcePoint" />
            <mxPoint x="240" y="809" as="targetPoint" />
          </mxGeometry>
        </mxCell>
        <mxCell id="Lcr_79089u36eCl_vuPX-14" value="VM 1" style="rounded=0;whiteSpace=wrap;html=1;" vertex="1" parent="1">
          <mxGeometry x="440" y="750" width="120" height="60" as="geometry" />
        </mxCell>
        <mxCell id="Lcr_79089u36eCl_vuPX-15" value="VM 2" style="rounded=0;whiteSpace=wrap;html=1;" vertex="1" parent="1">
          <mxGeometry x="570" y="750" width="120" height="60" as="geometry" />
        </mxCell>
        <mxCell id="Lcr_79089u36eCl_vuPX-16" value="VM (n)" style="rounded=0;whiteSpace=wrap;html=1;" vertex="1" parent="1">
          <mxGeometry x="760" y="750" width="120" height="60" as="geometry" />
        </mxCell>
        <mxCell id="Lcr_79089u36eCl_vuPX-17" value="" style="endArrow=none;dashed=1;html=1;dashPattern=1 3;strokeWidth=2;" edge="1" parent="1">
          <mxGeometry width="50" height="50" relative="1" as="geometry">
            <mxPoint x="700" y="809" as="sourcePoint" />
            <mxPoint x="750" y="809" as="targetPoint" />
          </mxGeometry>
        </mxCell>
        <mxCell id="Lcr_79089u36eCl_vuPX-18" value="" style="endArrow=none;html=1;entryX=0.5;entryY=0;entryDx=0;entryDy=0;exitX=0.5;exitY=1;exitDx=0;exitDy=0;jumpStyle=arc;" edge="1" parent="1" source="Lcr_79089u36eCl_vuPX-10" target="Lcr_79089u36eCl_vuPX-2">
          <mxGeometry width="50" height="50" relative="1" as="geometry">
            <mxPoint x="-70" y="940" as="sourcePoint" />
            <mxPoint x="-20" y="890" as="targetPoint" />
          </mxGeometry>
        </mxCell>
        <mxCell id="Lcr_79089u36eCl_vuPX-19" value="" style="endArrow=none;html=1;exitX=0.5;exitY=1;exitDx=0;exitDy=0;entryX=0.5;entryY=0;entryDx=0;entryDy=0;" edge="1" parent="1" source="Lcr_79089u36eCl_vuPX-11" target="Lcr_79089u36eCl_vuPX-2">
          <mxGeometry width="50" height="50" relative="1" as="geometry">
            <mxPoint x="180" y="670" as="sourcePoint" />
            <mxPoint x="230" y="620" as="targetPoint" />
          </mxGeometry>
        </mxCell>
        <mxCell id="Lcr_79089u36eCl_vuPX-20" value="" style="endArrow=none;html=1;entryX=0.5;entryY=1;entryDx=0;entryDy=0;exitX=0.5;exitY=0;exitDx=0;exitDy=0;" edge="1" parent="1" source="Lcr_79089u36eCl_vuPX-2" target="Lcr_79089u36eCl_vuPX-12">
          <mxGeometry width="50" height="50" relative="1" as="geometry">
            <mxPoint x="270" y="640" as="sourcePoint" />
            <mxPoint x="320" y="590" as="targetPoint" />
          </mxGeometry>
        </mxCell>
        <mxCell id="Lcr_79089u36eCl_vuPX-21" value="" style="endArrow=none;html=1;exitX=0.5;exitY=0;exitDx=0;exitDy=0;entryX=0.5;entryY=1;entryDx=0;entryDy=0;" edge="1" parent="1" source="Lcr_79089u36eCl_vuPX-3" target="Lcr_79089u36eCl_vuPX-14">
          <mxGeometry width="50" height="50" relative="1" as="geometry">
            <mxPoint x="300" y="640" as="sourcePoint" />
            <mxPoint x="350" y="590" as="targetPoint" />
          </mxGeometry>
        </mxCell>
        <mxCell id="Lcr_79089u36eCl_vuPX-22" value="" style="endArrow=none;html=1;exitX=0.5;exitY=0;exitDx=0;exitDy=0;entryX=0.5;entryY=1;entryDx=0;entryDy=0;" edge="1" parent="1" source="Lcr_79089u36eCl_vuPX-3" target="Lcr_79089u36eCl_vuPX-15">
          <mxGeometry width="50" height="50" relative="1" as="geometry">
            <mxPoint x="290" y="670" as="sourcePoint" />
            <mxPoint x="340" y="620" as="targetPoint" />
          </mxGeometry>
        </mxCell>
        <mxCell id="Lcr_79089u36eCl_vuPX-23" value="" style="endArrow=none;html=1;entryX=0.5;entryY=1;entryDx=0;entryDy=0;" edge="1" parent="1" target="Lcr_79089u36eCl_vuPX-16">
          <mxGeometry width="50" height="50" relative="1" as="geometry">
            <mxPoint x="320" y="910" as="sourcePoint" />
            <mxPoint x="560" y="620" as="targetPoint" />
          </mxGeometry>
        </mxCell>
        <mxCell id="Lcr_79089u36eCl_vuPX-41" value="" style="aspect=fixed;html=1;points=[];align=center;image;fontSize=12;image=img/lib/mscae/Kubernetes.svg;" vertex="1" parent="1">
          <mxGeometry x="227.92" y="540" width="104.17" height="100" as="geometry" />
        </mxCell>
        <mxCell id="Lcr_79089u36eCl_vuPX-50" value="DEV Cluster" style="text;html=1;strokeColor=none;fillColor=none;align=center;verticalAlign=middle;whiteSpace=wrap;rounded=0;" vertex="1" parent="1">
          <mxGeometry x="240" y="650" width="80" height="20" as="geometry" />
        </mxCell>
        <mxCell id="Lcr_79089u36eCl_vuPX-51" value="" style="rounded=1;whiteSpace=wrap;html=1;" vertex="1" parent="1">
          <mxGeometry x="470" y="530" width="140" height="150" as="geometry" />
        </mxCell>
        <mxCell id="Lcr_79089u36eCl_vuPX-52" value="" style="aspect=fixed;html=1;points=[];align=center;image;fontSize=12;image=img/lib/mscae/Kubernetes.svg;" vertex="1" parent="1">
          <mxGeometry x="487.92" y="540" width="104.17" height="100" as="geometry" />
        </mxCell>
        <mxCell id="Lcr_79089u36eCl_vuPX-53" value="PROD Cluster" style="text;html=1;strokeColor=none;fillColor=none;align=center;verticalAlign=middle;whiteSpace=wrap;rounded=0;" vertex="1" parent="1">
          <mxGeometry x="500" y="650" width="80" height="20" as="geometry" />
        </mxCell>
        <mxCell id="Lcr_79089u36eCl_vuPX-54" value="" style="endArrow=none;html=1;exitX=0.5;exitY=0;exitDx=0;exitDy=0;entryX=0.5;entryY=1;entryDx=0;entryDy=0;" edge="1" parent="1" source="Lcr_79089u36eCl_vuPX-10" target="Lcr_79089u36eCl_vuPX-49">
          <mxGeometry width="50" height="50" relative="1" as="geometry">
            <mxPoint x="60" y="690" as="sourcePoint" />
            <mxPoint x="110" y="640" as="targetPoint" />
          </mxGeometry>
        </mxCell>
        <mxCell id="Lcr_79089u36eCl_vuPX-55" value="" style="endArrow=none;html=1;exitX=0.5;exitY=0;exitDx=0;exitDy=0;entryX=0.5;entryY=1;entryDx=0;entryDy=0;" edge="1" parent="1" source="Lcr_79089u36eCl_vuPX-15" target="Lcr_79089u36eCl_vuPX-51">
          <mxGeometry width="50" height="50" relative="1" as="geometry">
            <mxPoint x="520" y="500" as="sourcePoint" />
            <mxPoint x="570" y="450" as="targetPoint" />
          </mxGeometry>
        </mxCell>
        <mxCell id="Lcr_79089u36eCl_vuPX-56" value="" style="endArrow=none;html=1;exitX=0.5;exitY=0;exitDx=0;exitDy=0;entryX=0.5;entryY=1;entryDx=0;entryDy=0;" edge="1" parent="1" source="Lcr_79089u36eCl_vuPX-11" target="Lcr_79089u36eCl_vuPX-51">
          <mxGeometry width="50" height="50" relative="1" as="geometry">
            <mxPoint x="370" y="450" as="sourcePoint" />
            <mxPoint x="420" y="400" as="targetPoint" />
          </mxGeometry>
        </mxCell>
        <mxCell id="Lcr_79089u36eCl_vuPX-57" value="" style="endArrow=none;html=1;exitX=0.5;exitY=1;exitDx=0;exitDy=0;entryX=0.5;entryY=0;entryDx=0;entryDy=0;jumpStyle=arc;" edge="1" parent="1" source="Lcr_79089u36eCl_vuPX-49" target="Lcr_79089u36eCl_vuPX-14">
          <mxGeometry width="50" height="50" relative="1" as="geometry">
            <mxPoint x="370" y="490" as="sourcePoint" />
            <mxPoint x="420" y="440" as="targetPoint" />
          </mxGeometry>
        </mxCell>
      </root>
    </mxGraphModel>
  </diagram>
</mxfile>
